<svg xmlns="http://www.w3.org/2000/svg" xmlns:xlink="http://www.w3.org/1999/xlink" width="248.51" height="36.72" viewBox="0 0 248.51 36.72">
  <defs>
    <clipPath id="clip-Basmah_logo_with_taglline">
      <rect width="248.51" height="36.72"/>
    </clipPath>
  </defs>
  <g id="Basmah_logo_with_taglline" clip-path="url(#clip-Basmah_logo_with_taglline)">
    <g id="Group_1" data-name="Group 1" transform="translate(-181.744 -378.14)">
      <path id="Path_1" data-name="Path 1" d="M244.327,402.067l-.007,1.532a.641.641,0,0,1-.642.639h-1.7l.007-1.536a.638.638,0,0,1,.638-.635Z" fill="#fff"/>
      <path id="Path_2" data-name="Path 2" d="M239.69,388.561a.635.635,0,0,0-.635.634l-.014,8.226a4.082,4.082,0,0,0,.949,2.819,5.163,5.163,0,0,0,6.307,0,4.093,4.093,0,0,0,.96-2.818l.01-4.084h-1.574a.64.64,0,0,0-.64.639l0,3.04a2.557,2.557,0,0,1-.481,1.656,1.74,1.74,0,0,1-1.431.554,1.715,1.715,0,0,1-1.413-.553,2.547,2.547,0,0,1-.473-1.656l.017-8.457Z" fill="#fff"/>
      <path id="Path_3" data-name="Path 3" d="M235.66,393.338a.638.638,0,0,0-.638.638v3.009s.1,2.182-1.36,2.207c-1.214-.021-1.35-1.535-1.361-2.043v-3.811h-1.506a.645.645,0,0,0-.645.645v3.17c-.012.512-.15,2.018-1.36,2.039-1.459-.025-1.361-2.207-1.361-2.207v-3.647h-1.512a.637.637,0,0,0-.638.638v3.2a2.54,2.54,0,0,1-.438,1.283,1.639,1.639,0,0,1-1.414.6h-4.7a1.641,1.641,0,0,1-1.414-.6c-.031-.042-.061-.086-.089-.132a1.642,1.642,0,0,1-.221-.884c0-.059,0-.119,0-.18a3.6,3.6,0,0,0-1.076-3.058,4.133,4.133,0,0,0-2.807-.924H211.7a4.137,4.137,0,0,0-2.818.924,3.622,3.622,0,0,0-1.076,3.09,2.458,2.458,0,0,1-.422,1.164,1.639,1.639,0,0,1-1.414.6h-6.447V397.62c-.023-1.882-.407-2.6-1.107-3.281a3.929,3.929,0,0,0-2.836-1.039l-6.76-.012a.64.64,0,0,0-.642.638l-.006,1.593h6.683a2.417,2.417,0,0,1,1.656.524,2.065,2.065,0,0,1,.583,1.583v1.429h-8.936a3.144,3.144,0,0,0-2.242.954,3.7,3.7,0,0,0-1.035,2.638,3.513,3.513,0,0,0,3.359,3.585h10.174a.645.645,0,0,0,.619-.463l.518-1.758H188.3a1.327,1.327,0,0,1-1.253-1.367,1.415,1.415,0,0,1,.394-1.011,1.174,1.174,0,0,1,.624-.351h17.923a3.785,3.785,0,0,0,2.924-.916,4.187,4.187,0,0,0,2.784.907h1.414a4.22,4.22,0,0,0,2.722-.856,3.837,3.837,0,0,0,2.872.865h4.743a3.827,3.827,0,0,0,2.885-.877,3.686,3.686,0,0,0,2.436.876h.041a3.573,3.573,0,0,0,2.416-.857,3.57,3.57,0,0,0,2.415.857h.041a3.676,3.676,0,0,0,2.651-1.074,3.819,3.819,0,0,0,.84-2.818v-4.051Zm-21.3,5.318a2.6,2.6,0,0,1-1.656.467h-.6a2.6,2.6,0,0,1-1.656-.467,1.671,1.671,0,0,1-.554-1.393,1.645,1.645,0,0,1,.553-1.375,2.587,2.587,0,0,1,1.657-.46h.6a2.588,2.588,0,0,1,1.656.46,1.645,1.645,0,0,1,.553,1.375,1.671,1.671,0,0,1-.554,1.393" fill="#fff"/>
      <path id="Path_4" data-name="Path 4" d="M217.11,411.815a.651.651,0,0,0-.348-.186.772.772,0,0,0,.184-.093.533.533,0,0,0,.126-.119.461.461,0,0,0,.072-.139.546.546,0,0,0,.023-.156.694.694,0,0,0-.05-.267.494.494,0,0,0-.159-.2.8.8,0,0,0-.283-.129,1.634,1.634,0,0,0-.419-.046h-.875v2.387h.95a1.231,1.231,0,0,0,.38-.055.843.843,0,0,0,.28-.152.653.653,0,0,0,.173-.229.687.687,0,0,0,.058-.284.479.479,0,0,0-.112-.329m-1.177-.924h.323a.743.743,0,0,1,.16.015.269.269,0,0,1,.112.049.211.211,0,0,1,.066.091.413.413,0,0,1,.021.142.336.336,0,0,1-.027.144.209.209,0,0,1-.079.09.337.337,0,0,1-.124.046.92.92,0,0,1-.165.013h-.287Zm.729,1.355a.233.233,0,0,1-.054.1.273.273,0,0,1-.108.072.48.48,0,0,1-.179.028h-.388v-.6h.385a.647.647,0,0,1,.173.02.292.292,0,0,1,.11.056.191.191,0,0,1,.059.088.39.39,0,0,1,.017.118.433.433,0,0,1-.015.113" fill="#fff"/>
      <path id="Path_5" data-name="Path 5" d="M219.027,410.477h-.565l-.92,2.386h.431a.183.183,0,0,0,.116-.037.186.186,0,0,0,.063-.082l.141-.417h.9l.14.417a.177.177,0,0,0,.065.086.2.2,0,0,0,.118.033h.428Zm-.607,1.474.219-.651c.016-.041.033-.09.052-.147s.036-.118.054-.185c.018.066.037.127.056.183l.05.146.219.654Z" fill="#fff"/>
      <path id="Path_6" data-name="Path 6" d="M221.816,410.7a.824.824,0,0,0-.144-.106,1.151,1.151,0,0,0-.174-.08,1.211,1.211,0,0,0-.2-.051,1.352,1.352,0,0,0-.213-.017.944.944,0,0,0-.348.06.78.78,0,0,0-.256.16.677.677,0,0,0-.212.49.743.743,0,0,0,.046.28.552.552,0,0,0,.12.19.62.62,0,0,0,.168.124,1.467,1.467,0,0,0,.195.078c.066.021.131.04.194.058a1.136,1.136,0,0,1,.169.061.341.341,0,0,1,.12.087.2.2,0,0,1,.045.135.254.254,0,0,1-.082.211.37.37,0,0,1-.234.066.53.53,0,0,1-.192-.031.783.783,0,0,1-.145-.069l-.113-.068a.184.184,0,0,0-.1-.032.144.144,0,0,0-.07.019.12.12,0,0,0-.05.047l-.164.259a.858.858,0,0,0,.165.127,1.236,1.236,0,0,0,.2.1,1.384,1.384,0,0,0,.222.064,1.114,1.114,0,0,0,.227.023.994.994,0,0,0,.361-.061.762.762,0,0,0,.268-.169.739.739,0,0,0,.166-.251.841.841,0,0,0,.057-.31.627.627,0,0,0-.046-.254.545.545,0,0,0-.12-.18.625.625,0,0,0-.17-.121,1.522,1.522,0,0,0-.2-.083c-.066-.023-.131-.045-.195-.064a1.329,1.329,0,0,1-.17-.063.385.385,0,0,1-.119-.082.162.162,0,0,1-.046-.12.224.224,0,0,1,.076-.179.342.342,0,0,1,.231-.066.493.493,0,0,1,.16.024.8.8,0,0,1,.124.053l.1.053a.169.169,0,0,0,.081.024.116.116,0,0,0,.07-.02.2.2,0,0,0,.051-.059Z" fill="#fff"/>
      <path id="Path_7" data-name="Path 7" d="M223.628,410.477h-.565l-.92,2.386h.431a.183.183,0,0,0,.116-.037.186.186,0,0,0,.063-.082l.14-.417h.9l.141.417a.169.169,0,0,0,.064.086.2.2,0,0,0,.118.033h.428Zm-.607,1.474.219-.651c.016-.041.033-.09.052-.147s.036-.118.054-.185c.018.066.037.127.056.183l.05.146.219.654Z" fill="#fff"/>
      <path id="Path_8" data-name="Path 8" d="M226.233,411.9q-.03-.068-.063-.129l-.612-1.212a.2.2,0,0,0-.033-.048.1.1,0,0,0-.039-.026.121.121,0,0,0-.048-.008h-.484v2.385h.486v-1.373c0-.032,0-.066,0-.1s-.006-.076-.011-.114l.634,1.229a.209.209,0,0,0,.079.087.223.223,0,0,0,.113.029h.076a.223.223,0,0,0,.113-.029.2.2,0,0,0,.079-.087l.631-1.227c-.007.078-.01.149-.01.216v1.373h.486v-2.385h-.484a.124.124,0,0,0-.048.008.1.1,0,0,0-.038.026.175.175,0,0,0-.034.048l-.61,1.207c-.022.042-.043.086-.064.131s-.04.093-.059.141c-.018-.047-.038-.093-.058-.138" fill="#fff"/>
      <path id="Path_9" data-name="Path 9" d="M230.309,410.477h-.369a.187.187,0,0,0-.186.186v.812h-.967v-.812a.185.185,0,0,0-.185-.186h-.37v2.387h.555v-1.009h.967v1.009h.555Z" fill="#fff"/>
      <path id="Path_10" data-name="Path 10" d="M233.274,412.022h.477v.516l-.033.01a1.682,1.682,0,0,1-.51.1.99.99,0,0,1-.716-.268.98.98,0,0,1,0-1.368.933.933,0,0,1,.685-.277,1.748,1.748,0,0,1,.879.257v-.361a3.167,3.167,0,0,0-.476-.166,1.692,1.692,0,0,0-.4-.045,1.323,1.323,0,0,0-.956.368,1.233,1.233,0,0,0-.381.924,1.188,1.188,0,0,0,.368.885,1.344,1.344,0,0,0,.983.359,2.269,2.269,0,0,0,.907-.2v-1.05h-.831Z" fill="#fff"/>
      <path id="Path_11" data-name="Path 11" d="M236.484,412.749c-.052-.071-.121-.176-.207-.317a4.326,4.326,0,0,0-.319-.47,1.132,1.132,0,0,0-.232-.213.618.618,0,0,0,.418-.609.625.625,0,0,0-.221-.5.9.9,0,0,0-.6-.186h-.621v2.476h.355v-1.077h.092a.552.552,0,0,1,.248.04.728.728,0,0,1,.165.13,2.021,2.021,0,0,1,.2.242l.118.194.11.18.069.1.022.03.107.163h.422Zm-.919-1.262a.994.994,0,0,1-.369.046h-.135v-.782h.106a1.25,1.25,0,0,1,.373.04.328.328,0,0,1,.175.134.378.378,0,0,1,.062.211.407.407,0,0,1-.056.212.346.346,0,0,1-.156.139" fill="#fff"/>
      <path id="Path_12" data-name="Path 12" d="M238.913,410.778a1.334,1.334,0,0,0-.956-.364,1.311,1.311,0,0,0-.949.364,1.221,1.221,0,0,0-.376.918,1.194,1.194,0,0,0,.373.9,1.29,1.29,0,0,0,.933.359,1.367,1.367,0,0,0,.971-.359,1.184,1.184,0,0,0,.385-.906,1.206,1.206,0,0,0-.381-.911m-.261,1.579a1.02,1.02,0,0,1-1.379.005A.891.891,0,0,1,237,411.7a.9.9,0,0,1,.274-.679.961.961,0,0,1,.7-.266.941.941,0,0,1,.681.269.885.885,0,0,1,.277.662.906.906,0,0,1-.277.675" fill="#fff"/>
      <path id="Path_13" data-name="Path 13" d="M241.526,411.856a1.278,1.278,0,0,1-.046.413.506.506,0,0,1-.151.209.775.775,0,0,1-.514.165.84.84,0,0,1-.384-.083.558.558,0,0,1-.243-.218,1.045,1.045,0,0,1-.08-.486v-1.4h-.356v1.4a1.789,1.789,0,0,0,.039.44.928.928,0,0,0,.1.237.8.8,0,0,0,.15.174,1.306,1.306,0,0,0,1.545,0,.767.767,0,0,0,.15-.172.941.941,0,0,0,.1-.242,1.716,1.716,0,0,0,.041-.431v-1.4h-.356Z" fill="#fff"/>
      <path id="Path_14" data-name="Path 14" d="M243.777,410.638a.813.813,0,0,0-.566-.191h-.785v2.48h.356v-1.075h.263a1.506,1.506,0,0,0,.538-.075.614.614,0,0,0,.3-.242.679.679,0,0,0,.109-.383.663.663,0,0,0-.211-.514m-.273.8a.492.492,0,0,1-.334.1h-.388v-.775h.367q.473,0,.472.381a.366.366,0,0,1-.117.292" fill="#fff"/>
      <path id="Path_15" data-name="Path 15" d="M250.975,382.819l.733-2.638H221.587a.748.748,0,0,0-.723.558l-1.326,5.3h27.2a4.4,4.4,0,0,0,4.236-3.219" fill="#fff"/>
      <path id="Path_16" data-name="Path 16" d="M182.477,411.975l-.733,2.638h30.12a.748.748,0,0,0,.723-.558l1.326-5.3h-27.2a4.4,4.4,0,0,0-4.236,3.219" fill="#fff"/>
      <path id="Path_17" data-name="Path 17" d="M208.164,385.1l0,.45h.5a.188.188,0,0,0,.187-.188l0-.448h-.5a.186.186,0,0,0-.186.186" fill="#fff"/>
      <path id="Path_18" data-name="Path 18" d="M194.822,383.782l.009-.418a.6.6,0,0,1,.17-.463.706.706,0,0,1,.484-.153h1.371l0-.467a.187.187,0,0,0-.188-.186l-1.393,0a1.095,1.095,0,0,0-1.152,1.263l-.009.42h-.72a.477.477,0,0,1-.413-.176.715.715,0,0,1-.123-.34v-.009a1.052,1.052,0,0,0-.315-.895,1.207,1.207,0,0,0-.824-.27h-.981a1.21,1.21,0,0,0-.824.27,1.055,1.055,0,0,0-.314.895c0,.053,0,.1,0,.152a1.171,1.171,0,0,0,.328.768,1.183,1.183,0,0,0,.806.253h.981a1.22,1.22,0,0,0,.814-.265,1.105,1.105,0,0,0,.855.268h3.477v-.651Zm-2.775-.105a.754.754,0,0,1-.484.137h-.744a.759.759,0,0,1-.485-.137.488.488,0,0,1-.161-.408.482.482,0,0,1,.161-.4.761.761,0,0,1,.485-.134h.744a.765.765,0,0,1,.485.134.589.589,0,0,1,0,.81" fill="#fff"/>
      <path id="Path_19" data-name="Path 19" d="M191.989,381.479l0-.461h-.512a.193.193,0,0,0-.192.191l0,.463h.51a.2.2,0,0,0,.194-.193" fill="#fff"/>
      <path id="Path_20" data-name="Path 20" d="M190.936,381.46l0-.461h-.512a.193.193,0,0,0-.192.191l0,.463h.51a.194.194,0,0,0,.194-.193" fill="#fff"/>
      <path id="Path_21" data-name="Path 21" d="M213.612,382.373a1.208,1.208,0,0,0-.821-.271h-.416a1.217,1.217,0,0,0-.825.271,1.057,1.057,0,0,0-.314.9h0a.719.719,0,0,1-.123.34.481.481,0,0,1-.414.176h-1.209l-.007-.42a1.1,1.1,0,0,0-1.153-1.263l-2.418,0a.187.187,0,0,0-.188.186l0,.466h2.4a.7.7,0,0,1,.484.153.6.6,0,0,1,.17.463l.009.418h-4.217a.48.48,0,0,1-.413-.175c-.009-.013-.018-.025-.026-.039a.474.474,0,0,1-.064-.258v-.052a1.053,1.053,0,0,0-.314-.894,1.211,1.211,0,0,0-.82-.27h-.416a1.21,1.21,0,0,0-.824.27,1.062,1.062,0,0,0-.314.9.723.723,0,0,1-.123.34.48.48,0,0,1-.413.175l-.538-.01h-.234l0-.281.023-.577a1,1,0,0,0-1.02-1.134c-.049,0-.1,0-.153,0a1.053,1.053,0,0,0-.894.314,1.211,1.211,0,0,0-.271.824v.335a1.209,1.209,0,0,0,.271.824,1.053,1.053,0,0,0,.894.314h.009a1.256,1.256,0,0,0,.43-.073l0,.384a.607.607,0,0,1-.171.463.711.711,0,0,1-.484.154h-.738l0,.466a.188.188,0,0,0,.188.186l.76,0a1.1,1.1,0,0,0,1.153-1.263l0-.278h.242l.538.011a1.107,1.107,0,0,0,.854-.268,1.222,1.222,0,0,0,.814.265h.413a1.231,1.231,0,0,0,.795-.25,1.12,1.12,0,0,0,.839.253h6.148a1.105,1.105,0,0,0,.855-.268,1.222,1.222,0,0,0,.814.266h.414a1.051,1.051,0,0,0,1.171-1.175,1.06,1.06,0,0,0-.347-.894m-14.163.78a.749.749,0,0,1-.137.483.585.585,0,0,1-.809,0,.76.76,0,0,1-.135-.484v-.1a.761.761,0,0,1,.135-.485.484.484,0,0,1,.4-.162.491.491,0,0,1,.407.162.755.755,0,0,1,.137.485Zm3.839.523a.76.76,0,0,1-.484.136h-.176a.76.76,0,0,1-.484-.136.49.49,0,0,1-.162-.407.48.48,0,0,1,.162-.4.758.758,0,0,1,.484-.135h.177a.755.755,0,0,1,.483.135.48.48,0,0,1,.162.4.49.49,0,0,1-.162.407m9.866,0a.767.767,0,0,1-.485.137h-.176a.767.767,0,0,1-.485-.137.489.489,0,0,1-.162-.407.482.482,0,0,1,.162-.4.755.755,0,0,1,.485-.134h.177a.754.754,0,0,1,.484.134.482.482,0,0,1,.162.4.489.489,0,0,1-.162.407" fill="#fff"/>
      <path id="Path_22" data-name="Path 22" d="M274.315,390.964a4.847,4.847,0,0,1-1.763,1.193,7.617,7.617,0,0,1-3.145.57,5.68,5.68,0,0,1-4.5-2,7.645,7.645,0,0,1-1.734-5.2v-.3a7.458,7.458,0,0,1,1.734-5.121,5.77,5.77,0,0,1,4.547-1.967,7.077,7.077,0,0,1,2.824.53,5.265,5.265,0,0,1,2,1.456v2.463h-.9l-.205-2.074a4.045,4.045,0,0,0-1.49-1.008,5.615,5.615,0,0,0-2.132-.374,4.66,4.66,0,0,0-3.807,1.694,6.674,6.674,0,0,0-1.393,4.382v.321a7,7,0,0,0,1.368,4.489,4.47,4.47,0,0,0,3.7,1.723,6.9,6.9,0,0,0,2.366-.36,3.774,3.774,0,0,0,1.383-.77v-3.437l-2.727-.048v-.945h3.886Z" fill="#fff"/>
      <path id="Path_23" data-name="Path 23" d="M282.161,378.354a5.43,5.43,0,0,1,3.5.993,3.49,3.49,0,0,1,1.221,2.873,3.289,3.289,0,0,1-.652,2,3.653,3.653,0,0,1-1.841,1.285,3.1,3.1,0,0,1,1.895,1.183,3.747,3.747,0,0,1,.579,2.147v1.3a2.092,2.092,0,0,0,.233,1.111.856.856,0,0,0,.711.389l.478.029v.867h-.741a1.527,1.527,0,0,1-1.441-.7,3.348,3.348,0,0,1-.408-1.714v-1.256a2.631,2.631,0,0,0-.824-2.04,3.371,3.371,0,0,0-2.293-.784h-3.563v5.511l1.587.137v.847H276.27v-.847l1.587-.137V379.347l-1.587-.136v-.857Zm-3.145,6.68h3.009a4.216,4.216,0,0,0,2.8-.769,2.585,2.585,0,0,0,.886-2.055,2.616,2.616,0,0,0-.886-2.113,4.045,4.045,0,0,0-2.667-.75h-3.145Z" fill="#fff"/>
      <path id="Path_24" data-name="Path 24" d="M301.672,385.531a7.733,7.733,0,0,1-1.7,5.194,5.543,5.543,0,0,1-4.429,2,5.426,5.426,0,0,1-4.368-2.005,7.818,7.818,0,0,1-1.679-5.19v-.185a7.849,7.849,0,0,1,1.674-5.2,5.406,5.406,0,0,1,4.362-2.011,5.548,5.548,0,0,1,4.436,2.011,7.74,7.74,0,0,1,1.709,5.2Zm-1.168-.205a6.99,6.99,0,0,0-1.345-4.459,4.382,4.382,0,0,0-3.632-1.705,4.248,4.248,0,0,0-3.558,1.705,7.112,7.112,0,0,0-1.31,4.459v.205a7.135,7.135,0,0,0,1.314,4.479,4.266,4.266,0,0,0,3.565,1.7,4.367,4.367,0,0,0,3.636-1.7,7.072,7.072,0,0,0,1.33-4.483Z" fill="#fff"/>
      <path id="Path_25" data-name="Path 25" d="M306.374,379.211l-1.441.107,2.239,9.192.429,2.161h.058l.526-2.161,3.116-10.166h1.1l3.107,10.166.516,2.191.058-.01.458-2.181,2.21-9.192-1.44-.107v-.867h3.7v.867l-1.062.078-3.3,13.233h-1.1l-3.3-10.876-.37-1.491h-.059l-.35,1.491-3.33,10.876h-1.1l-3.3-13.233-1.061-.078v-.867h3.7Z" fill="#fff"/>
      <path id="Path_26" data-name="Path 26" d="M321.5,379.211v-.867h4.343v.867l-1.587.126v12.2l1.587.127v.857H321.5v-.857l1.588-.127v-12.2Z" fill="#fff"/>
      <path id="Path_27" data-name="Path 27" d="M340.526,378.344v.867l-1.587.126v13.184H337.78l-8.053-12.191-.057.01v11.2l1.586.126v.857h-4.342v-.857l1.587-.126v-12.2l-1.587-.126v-.867h2.756l8.051,12.171.059-.009V379.337l-1.587-.126v-.867h4.333Z" fill="#fff"/>
      <path id="Path_28" data-name="Path 28" d="M352.745,390.964a4.847,4.847,0,0,1-1.763,1.193,7.617,7.617,0,0,1-3.145.57,5.68,5.68,0,0,1-4.5-2,7.645,7.645,0,0,1-1.734-5.2v-.3a7.458,7.458,0,0,1,1.734-5.121,5.77,5.77,0,0,1,4.547-1.967,7.077,7.077,0,0,1,2.824.53,5.265,5.265,0,0,1,2,1.456v2.463h-.9l-.2-2.074a4.045,4.045,0,0,0-1.49-1.008,5.615,5.615,0,0,0-2.132-.374,4.66,4.66,0,0,0-3.807,1.694,6.674,6.674,0,0,0-1.393,4.382v.321a7,7,0,0,0,1.368,4.489,4.47,4.47,0,0,0,3.7,1.723,6.9,6.9,0,0,0,2.366-.36,3.774,3.774,0,0,0,1.383-.77v-3.437l-2.727-.048v-.945h3.886Z" fill="#fff"/>
      <path id="Path_29" data-name="Path 29" d="M365.028,378.344a4.886,4.886,0,0,1,3.453,1.135,4.323,4.323,0,0,1,0,6.022,4.9,4.9,0,0,1-3.453,1.129H361.8v4.908l1.587.126v.857H359.05v-.857l1.587-.126v-12.2l-1.587-.126v-.867h5.978Zm-3.232,7.293h3.232a3.554,3.554,0,0,0,2.634-.891,3.062,3.062,0,0,0,.881-2.244,3.117,3.117,0,0,0-.876-2.264,3.524,3.524,0,0,0-2.639-.9H361.8Z" fill="#fff"/>
      <path id="Path_30" data-name="Path 30" d="M379.535,385.657h-5.812v5.881h6.7l.088-2.122h1.032v3.106H370.976v-.857l1.587-.127v-12.2l-1.587-.127v-.866h10.516v3.116H380.46l-.087-2.123h-6.65v5.326h5.812Z" fill="#fff"/>
      <path id="Path_31" data-name="Path 31" d="M395.52,385.531a7.732,7.732,0,0,1-1.7,5.194,5.543,5.543,0,0,1-4.43,2,5.426,5.426,0,0,1-4.367-2.005,7.813,7.813,0,0,1-1.68-5.19v-.185a7.844,7.844,0,0,1,1.675-5.2,5.405,5.405,0,0,1,4.362-2.011,5.545,5.545,0,0,1,4.435,2.011,7.74,7.74,0,0,1,1.709,5.2Zm-1.168-.205a6.99,6.99,0,0,0-1.344-4.459,4.382,4.382,0,0,0-3.632-1.705,4.25,4.25,0,0,0-3.559,1.705,7.118,7.118,0,0,0-1.31,4.459v.205a7.136,7.136,0,0,0,1.315,4.479,4.263,4.263,0,0,0,3.564,1.7,4.369,4.369,0,0,0,3.637-1.7,7.072,7.072,0,0,0,1.329-4.483Z" fill="#fff"/>
      <path id="Path_32" data-name="Path 32" d="M402.773,378.344a4.886,4.886,0,0,1,3.453,1.135,4.323,4.323,0,0,1,0,6.022,4.9,4.9,0,0,1-3.453,1.129h-3.232v4.908l1.587.126v.857H396.8v-.857l1.587-.126v-12.2l-1.587-.126v-.867h5.978Zm-3.232,7.293h3.232a3.554,3.554,0,0,0,2.634-.891,3.062,3.062,0,0,0,.881-2.244,3.117,3.117,0,0,0-.876-2.264,3.524,3.524,0,0,0-2.639-.9h-3.232Z" fill="#fff"/>
      <path id="Path_33" data-name="Path 33" d="M408.72,392.522v-.857l1.587-.126v-12.2l-1.587-.127v-.866h4.343v.866l-1.587.127v12.2h5.89l.088-2h1.033v2.979Z" fill="#fff"/>
      <path id="Path_34" data-name="Path 34" d="M428.251,385.657h-5.812v5.881h6.7l.088-2.122h1.032v3.106H419.691v-.857l1.587-.127v-12.2l-1.587-.127v-.866h10.516v3.116h-1.032l-.087-2.123h-6.65v5.326h5.812Z" fill="#fff"/>
      <path id="Path_35" data-name="Path 35" d="M264.9,409.968a3.87,3.87,0,0,1,.769-2.411,10.5,10.5,0,0,1,2.346-2.114,10.682,10.682,0,0,1-1.2-1.99,4.51,4.51,0,0,1-.4-1.837,4.321,4.321,0,0,1,1.28-3.275,4.735,4.735,0,0,1,3.422-1.226,4.167,4.167,0,0,1,3.063,1.167,3.827,3.827,0,0,1,1.179,2.825,4.015,4.015,0,0,1-.581,2.12,5.718,5.718,0,0,1-1.587,1.683l-1.1.781,3.27,3.815a6.325,6.325,0,0,0,.9-3.293h2.583a10.682,10.682,0,0,1-.4,3.009,7.262,7.262,0,0,1-1.232,2.44l2.464,2.891-.024.059h-3.838l-.912-1.054a8.249,8.249,0,0,1-2.074.977,7.787,7.787,0,0,1-2.286.325,5.961,5.961,0,0,1-4.11-1.356,4.5,4.5,0,0,1-1.528-3.536m5.816,2.239a5.115,5.115,0,0,0,2.464-.64l-3.554-4.122-.224.154a3.282,3.282,0,0,0-.825,1.107,2.881,2.881,0,0,0-.218,1.084,2.407,2.407,0,0,0,.651,1.736,2.254,2.254,0,0,0,1.706.681m-1.208-10.626a2.441,2.441,0,0,0,.254,1.048,6.457,6.457,0,0,0,.765,1.191l1.018-.664a2.472,2.472,0,0,0,.895-.876,2.123,2.123,0,0,0,.231-.984,1.5,1.5,0,0,0-.433-1.054,1.48,1.48,0,0,0-1.131-.462,1.434,1.434,0,0,0-1.185.515,1.988,1.988,0,0,0-.414,1.286" fill="#fff"/>
      <path id="Path_36" data-name="Path 36" d="M300.252,403.18h-2.571l-.356-2.3a3.6,3.6,0,0,0-1.285-.806,5.131,5.131,0,0,0-1.829-.3,4.057,4.057,0,0,0-3.466,1.635,6.97,6.97,0,0,0-1.215,4.265v.6a7.046,7.046,0,0,0,1.209,4.276,3.985,3.985,0,0,0,3.411,1.647,5.615,5.615,0,0,0,1.867-.3,3.105,3.105,0,0,0,1.308-.8l.356-2.3h2.571v3.412a7.438,7.438,0,0,1-2.66,1.925,8.848,8.848,0,0,1-3.618.716,7.384,7.384,0,0,1-5.688-2.4,8.754,8.754,0,0,1-2.215-6.171V405.7a8.812,8.812,0,0,1,2.2-6.172,7.361,7.361,0,0,1,5.7-2.416,8.681,8.681,0,0,1,3.612.728,7.772,7.772,0,0,1,2.666,1.925Z" fill="#fff"/>
      <path id="Path_37" data-name="Path 37" d="M317.607,406.118a9.16,9.16,0,0,1-2.168,6.266,7.706,7.706,0,0,1-11.319,0,9.212,9.212,0,0,1-2.149-6.266v-.261a9.244,9.244,0,0,1,2.143-6.255,7.084,7.084,0,0,1,5.64-2.488,7.18,7.18,0,0,1,5.679,2.488,9.16,9.16,0,0,1,2.174,6.255Zm-3.447-.285a7.7,7.7,0,0,0-1.113-4.347,3.7,3.7,0,0,0-3.293-1.671,3.608,3.608,0,0,0-3.252,1.659,7.918,7.918,0,0,0-1.072,4.359v.285a7.923,7.923,0,0,0,1.084,4.388,3.62,3.62,0,0,0,3.251,1.665,3.687,3.687,0,0,0,3.293-1.665,7.823,7.823,0,0,0,1.1-4.388Z" fill="#fff"/>
      <path id="Path_38" data-name="Path 38" d="M335.637,401.853l-.071-.012-4.62,12.77h-2.322l-4.6-12.723-.072.012.332,7.57v2.713l1.848.355v2.073h-7.144v-2.073l1.837-.355V399.8l-1.837-.355v-2.085h6.35l4.4,12.711h.071l4.43-12.711h6.374v2.085l-1.849.355v12.38l1.849.355v2.073h-7.144v-2.073l1.836-.355V409.47Z" fill="#fff"/>
      <path id="Path_39" data-name="Path 39" d="M350.054,397.363a6.784,6.784,0,0,1,4.673,1.522,5.49,5.49,0,0,1,0,7.967,6.832,6.832,0,0,1-4.673,1.505H347.14v3.826l1.848.355v2.073h-7.144v-2.073l1.837-.355V399.8l-1.837-.355v-2.085h8.21Zm-2.914,8.328h2.914a2.859,2.859,0,0,0,2.186-.788,2.815,2.815,0,0,0,.74-2.007,2.935,2.935,0,0,0-.74-2.056,2.815,2.815,0,0,0-2.186-.812H347.14Z" fill="#fff"/>
      <path id="Path_40" data-name="Path 40" d="M354.567,412.538l1.233-.177,5.248-15h3.542l5.211,15,1.233.177v2.074h-5.876v-2.074l1.2-.212-.758-2.37h-5.591l-.758,2.37,1.2.212v2.074h-5.876Zm6.255-5.129h3.957l-1.942-6.077h-.072Z" fill="#fff"/>
      <path id="Path_41" data-name="Path 41" d="M389.8,397.363v2.085l-1.849.355v14.808H384.5L377.536,403l-.07.011v9.169l1.848.356v2.073H372.17v-2.073l1.837-.356V399.8l-1.837-.355v-2.085h5.3l6.965,11.609.071-.012V399.8l-1.848-.355v-2.085H389.8Z" fill="#fff"/>
      <path id="Path_42" data-name="Path 42" d="M390.9,399.448v-2.085h7.144v2.085l-1.848.355v12.379l1.848.356v2.073H390.9v-2.073l1.849-.356V399.8Z" fill="#fff"/>
      <path id="Path_43" data-name="Path 43" d="M410.494,407.03h-5.84v4.928h5.568l.154-2.061h2.63v4.715H399.358v-2.074l1.837-.355V399.8l-1.837-.355v-2.085h13.624v4.727h-2.654l-.153-2.061h-5.521v4.335h5.84Z" fill="#fff"/>
      <path id="Path_44" data-name="Path 44" d="M427.956,402.872h-2.6l-.45-2.369a4.564,4.564,0,0,0-1.314-.5,7.675,7.675,0,0,0-1.837-.213,3.539,3.539,0,0,0-2.2.6,1.867,1.867,0,0,0-.775,1.546,1.69,1.69,0,0,0,.812,1.439,11.176,11.176,0,0,0,2.8,1.191,10.921,10.921,0,0,1,4.329,2.1,4.347,4.347,0,0,1,1.476,3.423,4.1,4.1,0,0,1-1.754,3.495,7.659,7.659,0,0,1-4.62,1.279,10.029,10.029,0,0,1-3.7-.651,7.615,7.615,0,0,1-2.754-1.8v-3.6h2.678l.367,2.452a4.181,4.181,0,0,0,1.415.7,6.691,6.691,0,0,0,2,.279,3.447,3.447,0,0,0,2.162-.581,1.872,1.872,0,0,0,.74-1.552,2,2,0,0,0-.7-1.6,7.129,7.129,0,0,0-2.469-1.138,14.05,14.05,0,0,1-4.644-2.108,3.993,3.993,0,0,1-1.575-3.341,4.106,4.106,0,0,1,1.776-3.429,7.408,7.408,0,0,1,4.467-1.369,10.383,10.383,0,0,1,3.624.6,8.375,8.375,0,0,1,2.749,1.611Z" fill="#fff"/>
    </g>
  </g>
</svg>
