<svg width="240" height="28" viewBox="0 0 240 28" fill="none" xmlns="http://www.w3.org/2000/svg">
<g clip-path="url(#clip0)">
<path d="M20.2166 1.47455C18.3366 0.533553 16.216 0 13.9692 0C12.0562 0 10.2324 0.386099 8.57159 1.08263L14.6366 5.95445L20.8045 10.9078H27.5952C26.6716 6.76934 23.9127 3.32743 20.2166 1.47455Z" fill="#A7E0FF"/>
<path d="M8.57178 1.08276C4.55557 2.76685 1.49395 6.27472 0.419082 10.5703C0.145515 11.6588 0 12.7977 0 13.9695C0 15.1414 0.145515 16.2784 0.417142 17.3668L4.65064 13.9695L14.6388 5.95459L8.57178 1.08276Z" fill="#5DB8FD"/>
<path d="M27.5971 17.033H20.8065L14.6347 21.9863L20.2128 26.4642C23.9108 24.6133 26.6717 21.1714 27.5971 17.033Z" fill="#1E3896"/>
<path d="M14.6369 21.9864L4.65074 13.9675L0.417236 17.3668C1.49016 21.6623 4.55179 25.1722 8.56799 26.8562C10.2307 27.5528 12.0545 27.9389 13.9695 27.9389C16.2143 27.9389 18.3349 27.4053 20.213 26.4643L14.6369 21.9864Z" fill="#196EEF"/>
<path d="M40.4744 8.46119H36.2292V7.00798H46.3241V8.46119H42.0615V20.9638H40.4744V8.46119ZM48.3322 5.89819H49.8804V12.3028C50.2491 11.7285 50.74 11.2745 51.3531 10.9349C51.9642 10.5973 52.6666 10.4285 53.4562 10.4285C54.1314 10.4285 54.7406 10.5333 55.2819 10.7448C55.8233 10.9543 56.285 11.2609 56.6672 11.6625C57.0495 12.0641 57.3424 12.5511 57.5462 13.1254C57.7499 13.6997 57.8527 14.3497 57.8527 15.0753V20.9638H56.2462V15.151C56.2462 14.144 55.9824 13.3408 55.4527 12.7413C54.923 12.1417 54.1489 11.843 53.1303 11.843C52.6724 11.843 52.2475 11.9264 51.8594 12.0913C51.4714 12.2562 51.1299 12.489 50.837 12.7898C50.544 13.0886 50.3151 13.4456 50.1482 13.8608C49.9833 14.276 49.8999 14.73 49.8999 15.2267V20.9619H48.3322V5.89819ZM65.5572 21.1733C64.7288 21.1733 63.9798 21.0356 63.3105 20.762C62.6411 20.4885 62.0687 20.1121 61.5895 19.6348C61.1103 19.1575 60.7455 18.5929 60.4894 17.9429C60.2353 17.293 60.1072 16.5925 60.1072 15.8398C60.1072 15.0753 60.243 14.3652 60.5185 13.7075C60.7921 13.0517 61.1685 12.4813 61.6458 11.9962C62.1231 11.5112 62.6915 11.129 63.3473 10.8496C64.0031 10.5702 64.721 10.4285 65.499 10.4285C66.2518 10.4285 66.9483 10.5585 67.5925 10.8205C68.2366 11.0824 68.7896 11.4452 69.2552 11.9109C69.7209 12.3765 70.0876 12.9314 70.3553 13.5736C70.6231 14.2177 70.7569 14.922 70.7569 15.6865V16.3946H61.638C61.6885 16.8913 61.8223 17.3434 62.0396 17.7528C62.2569 18.1602 62.5324 18.5153 62.872 18.8141C63.2096 19.1129 63.6054 19.3457 64.0574 19.5125C64.5095 19.6775 65.0101 19.7609 65.5592 19.7609C66.3876 19.7609 67.0822 19.5882 67.6429 19.2448C68.2036 18.9014 68.6615 18.4105 69.0185 17.7722L70.3573 18.556C69.8218 19.3845 69.1718 20.0286 68.4074 20.4865C67.641 20.9444 66.6922 21.1733 65.5572 21.1733ZM65.5009 11.8255C65.0043 11.8255 64.5425 11.905 64.1156 12.0641C63.6888 12.2232 63.3085 12.4464 62.9787 12.7335C62.6469 13.0206 62.3695 13.3582 62.1464 13.7463C61.9232 14.1343 61.7661 14.5592 61.6788 15.0171H69.1543C69.0263 14.0354 68.6382 13.2574 67.9883 12.685C67.3364 12.1126 66.5079 11.8255 65.5009 11.8255ZM84.9999 21.1539C83.9793 21.1539 83.0345 20.9657 82.1614 20.5893C81.2883 20.213 80.5336 19.7007 79.8952 19.0508C79.2569 18.4008 78.7544 17.6422 78.3858 16.7749C78.0152 15.9077 77.8309 14.9783 77.8309 13.983C77.8309 12.976 78.0191 12.037 78.3955 11.1639C78.7719 10.2908 79.2821 9.53218 79.9243 8.88803C80.5685 8.24389 81.3271 7.7375 82.2002 7.36886C83.0733 7.00022 84.0065 6.81397 85.0018 6.81397C85.6518 6.81397 86.2824 6.89933 86.8955 7.07201C87.5066 7.24469 88.0751 7.48333 88.597 7.78988C89.1189 8.09643 89.6001 8.46507 90.0405 8.89773C90.4809 9.3304 90.8534 9.80963 91.1581 10.3315L89.7825 11.1736C89.2974 10.3199 88.6455 9.63113 87.8229 9.10922C87.0002 8.5873 86.0612 8.32538 85.0038 8.32538C84.2141 8.32538 83.4807 8.47477 82.8055 8.7755C82.1303 9.07429 81.5444 9.47979 81.0458 9.99006C80.5491 10.5003 80.1572 11.0979 79.87 11.7867C79.5829 12.4755 79.4393 13.2088 79.4393 13.9849C79.4393 14.7629 79.579 15.4925 79.8603 16.1735C80.1397 16.8564 80.5297 17.4521 81.0264 17.9604C81.5231 18.4707 82.109 18.8723 82.7861 19.1652C83.4613 19.4582 84.1947 19.6057 84.9844 19.6057C86.1446 19.6057 87.1477 19.3263 87.9955 18.7636C88.8434 18.2029 89.4895 17.4695 89.9357 16.5654L91.3501 17.3104C91.0436 17.8847 90.675 18.4066 90.2423 18.8781C89.8096 19.3496 89.3207 19.7551 88.7794 20.0927C88.2381 20.4303 87.6483 20.6922 87.0119 20.8765C86.3697 21.0628 85.7022 21.1539 84.9999 21.1539ZM93.6221 5.89819H95.1898V20.9638H93.6221V5.89819ZM103.106 21.1733C102.341 21.1733 101.633 21.0356 100.983 20.762C100.333 20.4885 99.7686 20.1082 99.2914 19.6251C98.8141 19.14 98.4377 18.5735 98.1641 17.9235C97.8905 17.2736 97.7528 16.5654 97.7528 15.8009C97.7528 15.0482 97.8886 14.3458 98.1641 13.6881C98.4377 13.0323 98.8179 12.4619 99.3011 11.9768C99.7861 11.4918 100.353 11.1134 101.003 10.8399C101.653 10.5663 102.353 10.4285 103.106 10.4285C103.859 10.4285 104.561 10.5663 105.219 10.8399C105.874 11.1134 106.445 11.4937 106.93 11.9768C107.415 12.4619 107.793 13.0323 108.067 13.6881C108.34 14.3439 108.478 15.0482 108.478 15.8009C108.478 16.5537 108.34 17.2542 108.067 17.9041C107.793 18.5541 107.413 19.1206 106.93 19.6057C106.445 20.0907 105.878 20.4729 105.228 20.7523C104.576 21.0337 103.87 21.1733 103.106 21.1733ZM103.106 19.6833C103.641 19.6833 104.142 19.5843 104.607 19.3864C105.073 19.1885 105.475 18.915 105.812 18.5638C106.15 18.2126 106.414 17.8032 106.606 17.3298C106.798 16.8584 106.893 16.3481 106.893 15.8009C106.893 15.2538 106.798 14.7397 106.606 14.2624C106.414 13.7851 106.148 13.3699 105.803 13.0206C105.459 12.6695 105.058 12.3959 104.598 12.198C104.14 12.0001 103.641 11.9012 103.106 11.9012C102.57 11.9012 102.074 12.0001 101.614 12.198C101.156 12.3959 100.756 12.6695 100.419 13.0206C100.081 13.3718 99.8171 13.7851 99.6251 14.2624C99.433 14.7397 99.3379 15.2538 99.3379 15.8009C99.3379 16.3617 99.433 16.8778 99.6251 17.3492C99.8171 17.8207 100.081 18.2281 100.419 18.5735C100.756 18.9169 101.154 19.1885 101.614 19.3864C102.074 19.5843 102.57 19.6833 103.106 19.6833ZM111.02 10.64H112.529V12.5899C112.747 11.9012 113.106 11.3792 113.61 11.0222C114.112 10.6653 114.735 10.4868 115.475 10.4868C116.214 10.4868 116.788 10.6148 117.195 10.869L116.545 12.361C116.406 12.2601 116.229 12.1786 116.02 12.1223C115.81 12.0661 115.564 12.037 115.284 12.037C114.417 12.037 113.748 12.295 113.276 12.8111C112.805 13.3272 112.568 14.1595 112.568 15.3062V20.9657H111.02V10.64ZM123.103 21.1733C122.339 21.1733 121.631 21.0356 120.981 20.762C120.331 20.4885 119.766 20.1082 119.289 19.6251C118.812 19.14 118.435 18.5735 118.162 17.9235C117.888 17.2736 117.75 16.5654 117.75 15.8009C117.75 15.0482 117.886 14.3458 118.162 13.6881C118.435 13.0323 118.816 12.4619 119.299 11.9768C119.784 11.4918 120.35 11.1134 121 10.8399C121.65 10.5663 122.351 10.4285 123.103 10.4285C123.856 10.4285 124.558 10.5663 125.216 10.8399C125.872 11.1134 126.442 11.4937 126.927 11.9768C127.413 12.4619 127.791 13.0323 128.064 13.6881C128.338 14.3439 128.476 15.0482 128.476 15.8009C128.476 16.5537 128.338 17.2542 128.064 17.9041C127.791 18.5541 127.411 19.1206 126.927 19.6057C126.442 20.0907 125.876 20.4729 125.226 20.7523C124.574 21.0337 123.868 21.1733 123.103 21.1733ZM123.103 19.6833C123.639 19.6833 124.139 19.5843 124.603 19.3864C125.069 19.1885 125.47 18.915 125.808 18.5638C126.146 18.2126 126.409 17.8032 126.602 17.3298C126.794 16.8584 126.889 16.3481 126.889 15.8009C126.889 15.2538 126.794 14.7397 126.602 14.2624C126.409 13.7851 126.142 13.3699 125.798 13.0206C125.455 12.6695 125.053 12.3959 124.593 12.198C124.134 12.0001 123.637 11.9012 123.101 11.9012C122.566 11.9012 122.069 12.0001 121.609 12.198C121.152 12.3959 120.752 12.6695 120.414 13.0206C120.077 13.3718 119.813 13.7851 119.621 14.2624C119.429 14.7397 119.334 15.2538 119.334 15.8009C119.334 16.3617 119.429 16.8778 119.621 17.3492C119.813 17.8207 120.077 18.2281 120.414 18.5735C120.752 18.9169 121.15 19.1885 121.609 19.3864C122.069 19.5843 122.568 19.6833 123.103 19.6833ZM133.252 15.6865L129.372 10.64H131.283L134.246 14.5398L137.209 10.64H139.102L135.202 15.6865L139.331 20.9638H137.381L134.226 16.8913L131.13 20.9638H129.18L133.252 15.6865ZM152.693 21.1539C151.673 21.1539 150.728 20.9657 149.855 20.5893C148.982 20.213 148.227 19.7007 147.589 19.0508C146.95 18.4008 146.448 17.6422 146.079 16.7749C145.709 15.9077 145.524 14.9783 145.524 13.983C145.524 12.976 145.712 12.037 146.089 11.1639C146.465 10.2908 146.975 9.53218 147.618 8.88803C148.262 8.24389 149.02 7.7375 149.894 7.36886C150.767 7.00022 151.7 6.81397 152.695 6.81397C153.345 6.81397 153.976 6.89933 154.589 7.07201C155.2 7.24469 155.768 7.48333 156.29 7.78988C156.812 8.09643 157.293 8.46507 157.734 8.89773C158.174 9.3304 158.547 9.80963 158.851 10.3315L157.474 11.1736C156.989 10.3199 156.337 9.63113 155.514 9.10922C154.692 8.5873 153.753 8.32538 152.695 8.32538C151.906 8.32538 151.172 8.47477 150.497 8.7755C149.822 9.07429 149.236 9.47979 148.739 9.99006C148.242 10.5003 147.851 11.0979 147.563 11.7867C147.276 12.4755 147.133 13.2088 147.133 13.9849C147.133 14.7629 147.272 15.4925 147.554 16.1735C147.833 16.8564 148.223 17.4521 148.72 17.9604C149.216 18.4707 149.802 18.8723 150.479 19.1652C151.155 19.4582 151.888 19.6057 152.678 19.6057C153.838 19.6057 154.841 19.3263 155.689 18.7636C156.537 18.2029 157.183 17.4695 157.629 16.5654L159.043 17.3104C158.737 17.8847 158.368 18.4066 157.934 18.8781C157.501 19.3496 157.012 19.7551 156.471 20.0927C155.929 20.4303 155.34 20.6922 154.703 20.8765C154.065 21.0628 153.396 21.1539 152.693 21.1539ZM166.098 21.1733C165.334 21.1733 164.625 21.0356 163.975 20.762C163.326 20.4885 162.761 20.1082 162.284 19.6251C161.806 19.14 161.43 18.5735 161.156 17.9235C160.883 17.2736 160.745 16.5654 160.745 15.8009C160.745 15.0482 160.883 14.3458 161.156 13.6881C161.43 13.0323 161.81 12.4619 162.293 11.9768C162.778 11.4918 163.345 11.1134 163.995 10.8399C164.645 10.5663 165.345 10.4285 166.098 10.4285C166.851 10.4285 167.553 10.5663 168.211 10.8399C168.867 11.1134 169.437 11.4937 169.922 11.9768C170.407 12.4619 170.786 13.0323 171.059 13.6881C171.333 14.3439 171.47 15.0482 171.47 15.8009C171.47 16.5537 171.333 17.2542 171.059 17.9041C170.786 18.5541 170.405 19.1206 169.922 19.6057C169.437 20.0907 168.871 20.4729 168.221 20.7523C167.571 21.0337 166.862 21.1733 166.098 21.1733ZM166.098 19.6833C166.634 19.6833 167.134 19.5843 167.6 19.3864C168.065 19.1885 168.467 18.915 168.805 18.5638C169.142 18.2126 169.406 17.8032 169.598 17.3298C169.79 16.8584 169.885 16.3481 169.885 15.8009C169.885 15.2538 169.79 14.7397 169.598 14.2624C169.406 13.7851 169.138 13.3699 168.795 13.0206C168.451 12.6695 168.05 12.3959 167.59 12.198C167.13 12.0001 166.634 11.9012 166.098 11.9012C165.563 11.9012 165.066 12.0001 164.606 12.198C164.148 12.3959 163.748 12.6695 163.411 13.0206C163.073 13.3718 162.809 13.7851 162.617 14.2624C162.425 14.7397 162.33 15.2538 162.33 15.8009C162.33 16.3617 162.425 16.8778 162.617 17.3492C162.809 17.8207 163.073 18.2281 163.411 18.5735C163.748 18.9169 164.146 19.1885 164.606 19.3864C165.066 19.5843 165.563 19.6833 166.098 19.6833ZM173.731 10.64H175.279V12.1495C175.611 11.614 176.053 11.193 176.608 10.8884C177.163 10.5818 177.823 10.4305 178.587 10.4305C179.505 10.4305 180.263 10.6245 180.863 11.0145C181.462 11.4025 181.901 11.9225 182.182 12.5725C182.514 11.9225 182.997 11.4025 183.635 11.0145C184.272 10.6264 185.025 10.4305 185.892 10.4305C187.332 10.4305 188.422 10.836 189.161 11.6451C189.9 12.4541 190.269 13.5348 190.269 14.8852V20.9638H188.682V14.9026C188.682 13.9849 188.43 13.2418 187.927 12.6753C187.423 12.1088 186.693 11.8235 185.739 11.8235C185.306 11.8235 184.906 11.8934 184.543 12.0331C184.181 12.1728 183.864 12.3804 183.597 12.654C183.329 12.9275 183.119 13.2632 182.966 13.657C182.813 14.0528 182.737 14.5049 182.737 15.0152V20.9599H181.169V14.7494C181.169 13.8569 180.923 13.1468 180.434 12.6171C179.943 12.0874 179.239 11.8235 178.321 11.8235C177.429 11.8235 176.703 12.1165 176.142 12.7025C175.582 13.2884 175.3 14.1052 175.3 15.149V20.9599H173.733V10.64H173.731ZM198.585 21.1733C197.82 21.1733 197.087 21.0045 196.386 20.667C195.686 20.3294 195.131 19.8346 194.724 19.1846V25.3486H193.175V10.64H194.704V12.5337C194.908 12.2019 195.154 11.905 195.44 11.6451C195.727 11.3831 196.041 11.1639 196.386 10.9854C196.73 10.8069 197.091 10.6691 197.467 10.5741C197.843 10.479 198.222 10.4305 198.604 10.4305C199.318 10.4305 199.993 10.5605 200.632 10.8224C201.268 11.0843 201.827 11.453 202.304 11.9303C202.781 12.4075 203.158 12.976 203.431 13.6318C203.705 14.2876 203.843 15.0113 203.843 15.8009C203.843 16.5906 203.705 17.3143 203.431 17.9701C203.158 18.6259 202.785 19.1943 202.314 19.6716C201.842 20.1489 201.283 20.5195 200.641 20.7795C199.995 21.0434 199.31 21.1733 198.585 21.1733ZM198.451 19.7007C198.986 19.7007 199.487 19.6018 199.952 19.4039C200.418 19.206 200.822 18.9324 201.167 18.5812C201.51 18.2301 201.778 17.8168 201.97 17.3395C202.162 16.8622 202.257 16.3423 202.257 15.7815C202.257 15.2344 202.162 14.7203 201.97 14.243C201.778 13.7657 201.51 13.3505 201.167 13.0012C200.824 12.6501 200.418 12.3726 199.952 12.1689C199.487 11.9652 198.986 11.8624 198.451 11.8624C197.902 11.8624 197.393 11.9671 196.922 12.1786C196.45 12.3881 196.043 12.6695 195.698 13.0206C195.354 13.3718 195.083 13.7851 194.885 14.2624C194.687 14.7397 194.588 15.248 194.588 15.7815C194.588 16.3306 194.687 16.8428 194.885 17.3201C195.083 17.7974 195.352 18.2126 195.698 18.5618C196.041 18.913 196.45 19.1905 196.922 19.3942C197.393 19.5998 197.902 19.7007 198.451 19.7007ZM210.903 21.1733C210.177 21.1733 209.49 21.0434 208.848 20.7814C208.204 20.5195 207.647 20.1509 207.176 19.6736C206.704 19.1963 206.332 18.6278 206.058 17.972C205.785 17.3162 205.647 16.5925 205.647 15.8029C205.647 15.0132 205.785 14.2895 206.058 13.6337C206.332 12.978 206.708 12.4095 207.186 11.9322C207.663 11.4549 208.222 11.0843 208.858 10.8243C209.494 10.5624 210.177 10.4324 210.903 10.4324C211.656 10.4324 212.387 10.6109 213.101 10.9679C213.815 11.3249 214.376 11.8274 214.783 12.4774V10.642H216.312V20.9657H214.764V19.1303C214.56 19.4485 214.314 19.7357 214.029 19.9898C213.741 20.244 213.429 20.4574 213.091 20.6301C212.754 20.8028 212.397 20.9366 212.02 21.0317C211.646 21.1268 211.273 21.1733 210.903 21.1733ZM211.037 19.7007C211.584 19.7007 212.094 19.5979 212.566 19.3942C213.037 19.1905 213.445 18.913 213.79 18.5618C214.133 18.2107 214.401 17.7974 214.593 17.3201C214.785 16.8428 214.88 16.3287 214.88 15.7815C214.88 15.2461 214.785 14.7397 214.593 14.2624C214.401 13.7851 214.133 13.3699 213.79 13.0206C213.447 12.6695 213.037 12.3901 212.566 12.1786C212.094 11.9691 211.584 11.8624 211.037 11.8624C210.501 11.8624 210.001 11.9652 209.537 12.1689C209.071 12.3726 208.668 12.6501 208.322 13.0012C207.979 13.3524 207.711 13.7657 207.519 14.243C207.327 14.7203 207.232 15.2344 207.232 15.7815C207.232 16.3423 207.327 16.8622 207.519 17.3395C207.711 17.8168 207.977 18.232 208.322 18.5812C208.666 18.9324 209.071 19.206 209.537 19.4039C210.003 19.6037 210.501 19.7007 211.037 19.7007ZM219.201 10.64H220.73V12.361C221.087 11.7867 221.574 11.323 222.193 10.966C222.812 10.609 223.522 10.4305 224.325 10.4305C225 10.4305 225.61 10.5353 226.151 10.7467C226.692 10.9563 227.154 11.2628 227.536 11.6645C227.918 12.0661 228.211 12.5531 228.415 13.1274C228.619 13.7017 228.722 14.3516 228.722 15.0773V20.9657H227.135V15.151C227.135 14.144 226.867 13.3408 226.331 12.7413C225.796 12.1417 225.026 11.843 224.019 11.843C223.559 11.843 223.132 11.9264 222.738 12.0913C222.342 12.2562 221.999 12.489 221.706 12.7898C221.413 13.0886 221.184 13.4456 221.017 13.8608C220.852 14.276 220.769 14.73 220.769 15.2267V20.9619H219.201V10.64ZM232.07 25.3486L234.17 20.4671L229.849 10.64H231.55L235.01 18.6317L238.298 10.64H240L233.625 25.3486H232.07Z" fill="black"/>
</g>
<defs>
<clipPath id="clip0">
<rect width="240" height="27.9388" fill="white"/>
</clipPath>
</defs>
</svg>
