<svg width="114" height="55" viewBox="0 0 114 55" fill="none" xmlns="http://www.w3.org/2000/svg">
<g clip-path="url(#clip0_34_843)">
<path fill-rule="evenodd" clip-rule="evenodd" d="M60.4003 46.4624L59.3159 46.4642C58.2176 46.4663 57.8455 45.9261 57.8437 44.8713V32.8233C57.8412 31.3713 56.674 30.1965 55.2357 30.1987C55.165 30.199 55.1075 30.257 55.1075 30.3284V45.4439C55.1111 47.4721 56.2394 49.2279 58.8385 49.2232H60.4007C60.47 49.2228 60.526 49.1663 60.526 49.0963V46.5889C60.526 46.5189 60.4696 46.4624 60.4003 46.4624ZM72.3378 36.08H69.7069C69.6544 36.08 69.6077 36.1135 69.5905 36.1632L66.5737 44.9618L63.5815 36.1643C63.5625 36.1131 63.5143 36.0793 63.4604 36.0796L60.8206 36.0811C60.7306 36.0811 60.6685 36.1715 60.6996 36.2566L65.1083 49.1389C65.1179 49.1659 65.1186 49.1958 65.1093 49.2232L64.5887 50.7779C64.1888 51.8871 63.7875 52.2395 62.6356 52.2413L62.3453 52.2421C62.2703 52.2421 62.2128 52.3091 62.2232 52.384L62.5717 54.8922C62.5802 54.9542 62.6327 55 62.6941 55L63.138 54.9989C64.1828 54.9971 65.2247 54.7521 65.9734 53.9935C66.3748 53.5873 66.6951 53.0461 66.84 52.6223L72.4546 36.2465C72.4831 36.165 72.4231 36.08 72.3378 36.08ZM47.572 35.7549C46.3101 35.7571 45.1425 36.1315 44.2334 36.9986C44.1495 37.0786 44.0117 37.0177 44.0117 36.9013L44.0128 36.2079C44.0128 36.1369 43.9556 36.0793 43.8853 36.0796H41.403C41.3326 36.0796 41.2758 36.1373 41.2758 36.2083V49.0942C41.2758 49.1652 41.333 49.2225 41.4033 49.2225L43.8856 49.2232C43.956 49.2232 44.0128 49.1655 44.0128 49.0945V41.7516C44.0092 39.6423 45.2986 38.2199 46.8257 38.217C48.3529 38.2145 49.573 39.1291 49.5766 41.2654L49.5769 49.0949C49.5773 49.1659 49.6344 49.2232 49.7048 49.2232H52.3103L52.3135 40.8578C52.3106 39.3165 51.9696 38.0188 50.9231 36.9932C50.1179 36.2104 48.9649 35.7524 47.572 35.7549ZM101.284 41.429C101.309 40.6232 101.362 40.2329 101.626 39.6351C102.048 38.6466 103.028 37.9691 104.301 37.9669C105.573 37.9647 106.529 38.639 106.955 39.6257C107.221 40.2228 107.301 40.6232 107.329 41.429H101.284ZM104.297 35.7578C100.813 35.7639 98.5397 38.2631 98.5472 42.5714C98.5558 47.6412 101.266 49.3965 104.668 49.3904C106.528 49.3872 107.735 48.9526 108.835 48.1132C108.899 48.065 108.905 47.9705 108.847 47.9154C108.847 47.9154 107.596 46.7204 107.301 46.4422C107.258 46.4022 107.195 46.3993 107.147 46.4317C106.489 46.8728 105.778 47.0768 104.718 47.0786C102.494 47.0826 101.259 45.64 101.255 43.3545H109.944C110.014 43.3545 110.07 43.2972 110.07 43.2262L110.069 42.1573C110.062 38.3748 107.941 35.7513 104.297 35.7578ZM111.091 35.5354C109.787 35.538 108.755 34.4835 108.753 33.1433C108.75 31.8031 109.779 30.7454 111.083 30.7432C112.386 30.741 113.41 31.7951 113.413 33.135C113.415 34.4756 112.395 35.5333 111.091 35.5354ZM111.082 30.1987C109.472 30.2015 108.171 31.5198 108.173 33.1444C108.176 34.7689 109.482 36.0829 111.092 36.08C112.701 36.0771 114.003 34.7588 114 33.1343C113.997 31.5097 112.691 30.1961 111.082 30.1987ZM38.6296 46.4624L37.5516 46.4642C36.4533 46.4663 36.053 45.9261 36.0512 44.8713L36.0562 32.8236C36.0541 31.3713 34.8858 30.1965 33.4468 30.1987C33.3761 30.199 33.3193 30.2567 33.3193 30.328V45.4439C33.3229 47.4721 34.4512 49.2279 37.05 49.2232H38.6343C38.705 49.2228 38.7617 49.1652 38.7617 49.0938L38.7575 46.591C38.7575 46.52 38.7 46.4624 38.6296 46.4624ZM111.183 33.002H110.655V32.0434L111.181 32.0427C111.487 32.042 111.697 32.2528 111.697 32.5209C111.698 32.789 111.489 33.0013 111.183 33.002ZM112.269 32.5198C112.268 31.9919 111.848 31.5479 111.253 31.549H110.07V34.7239H110.655V33.4651L111.055 33.4644L111.7 34.721H112.353L111.65 33.3819C111.996 33.2597 112.269 32.9667 112.269 32.5198ZM92.9973 40.8964C92.9673 40.8495 92.9431 40.7883 92.9788 40.7458L96.713 36.2919C96.7837 36.2083 96.7247 36.0793 96.6158 36.0796H93.403C93.3655 36.0796 93.3298 36.0966 93.3055 36.1254L88.7125 41.5919L88.7129 32.8247C88.7104 31.372 87.5692 30.1965 86.1299 30.1987C86.0599 30.199 86.0035 30.2563 86.0035 30.327L86.0052 49.0949C86.0052 49.1659 86.0624 49.2232 86.1331 49.2232H88.5847C88.655 49.2232 88.7118 49.1655 88.7118 49.0942L88.7132 45.8595C88.7132 45.8321 88.7229 45.8054 88.7404 45.7845L90.987 43.1228C91.041 43.0586 91.1413 43.0648 91.1866 43.1354L94.8937 49.1645C94.9173 49.2012 94.9576 49.2232 95.0012 49.2232H97.887C97.9884 49.2232 98.0488 49.1097 97.9934 49.0239L92.9973 40.8964ZM79.5895 35.7578C76.5258 35.7632 73.519 37.5799 73.5275 42.5685C73.5361 47.5568 76.5494 49.3893 79.6127 49.3843C81.1513 49.3814 82.3118 49.0095 83.3879 48.141C83.4458 48.0938 83.4519 48.0048 83.4008 47.95L81.8272 46.2728C81.7815 46.2234 81.7051 46.2209 81.6533 46.2642C81.0313 46.7838 80.4407 46.9936 79.6087 46.995C78.5604 46.9968 77.6731 46.5784 77.0807 45.8177C76.488 45.0839 76.2712 44.1127 76.2687 42.5638C76.2659 41.0146 76.4794 40.0693 77.0696 39.3331C77.6595 38.5705 78.5454 38.1489 79.5934 38.1471C80.44 38.1456 81.037 38.359 81.6733 38.8967C81.7226 38.9385 81.7958 38.9385 81.8426 38.8934L83.5272 37.2843C83.5822 37.2314 83.58 37.1402 83.5215 37.0908C82.3989 36.1405 81.2009 35.7549 79.5895 35.7578ZM29.1449 33.7689C29.2141 33.7689 29.2702 33.7123 29.2702 33.6424V30.9713C29.2702 30.9014 29.2141 30.8448 29.1449 30.8448H26.926C26.8568 30.8448 26.8007 30.9014 26.8007 30.9713V33.6424C26.8007 33.7123 26.8568 33.7689 26.926 33.7689H29.1449ZM21.1112 30.8448C21.0419 30.8448 20.9859 30.9014 20.9859 30.9713V33.6424C20.9859 33.7123 21.0419 33.7689 21.1112 33.7689H23.33C23.3993 33.7689 23.4554 33.7123 23.4554 33.6424V30.9713C23.4554 30.9014 23.3993 30.8448 23.33 30.8448H21.1112ZM16.8443 30.1983L15.7424 30.199C14.7204 30.1976 13.7838 30.7742 13.3179 31.6924L8.48533 41.2178L3.65279 31.6924C3.18682 30.7742 2.25023 30.1976 1.22795 30.199L0.126402 30.1983C0.0564166 30.1987 0 30.256 0 30.3266V49.0956C0 49.1663 0.0567736 49.2232 0.126759 49.2232H2.77834C2.84832 49.2228 2.90474 49.1655 2.90474 49.0953V36.6256L7.39985 45.5185C7.42128 45.5614 7.4652 45.5881 7.51268 45.5881H9.45763C9.50547 45.5881 9.54904 45.5614 9.57082 45.5185L14.0659 36.6256V49.0953C14.0659 49.1655 14.1223 49.2228 14.1923 49.2232H16.8439C16.9135 49.2232 16.9703 49.1663 16.9707 49.0956V30.3266C16.9707 30.256 16.9143 30.1987 16.8443 30.1983ZM27.1149 46.1424C26.6154 46.6335 25.9313 46.9186 25.1418 46.92C24.352 46.9215 23.6935 46.6386 23.1922 46.1492C22.3749 45.3506 22.267 43.9826 22.2645 42.5631C22.2624 41.1436 22.3652 39.7753 23.1801 38.9738C23.6792 38.4822 24.337 38.2231 25.1268 38.2217C25.9163 38.2206 26.6015 38.4772 27.1024 38.9669C27.9201 39.7655 28.0276 41.1335 28.0301 42.553C28.0326 43.9725 27.9298 45.3409 27.1149 46.1424ZM25.1225 35.7578C23.2747 35.761 21.9639 36.4461 21.0816 37.3402C19.7983 38.6552 19.4798 40.336 19.4837 42.5678C19.4876 44.8255 19.8118 46.5053 21.0994 47.8159C21.9846 48.7071 23.2979 49.3872 25.1457 49.3843C26.9932 49.381 28.3315 48.696 29.2134 47.8015C30.4964 46.4865 30.8149 44.8057 30.8109 42.548C30.8074 40.3162 30.4831 38.6365 29.1952 37.3262C28.3104 36.4349 26.97 35.7546 25.1225 35.7578ZM3.02471 17.0335C4.69507 17.0335 6.04907 15.6666 6.04907 13.9807C6.04907 12.2949 4.69507 10.9284 3.02471 10.9284C1.354 10.9284 0 12.2949 0 13.9807C0 15.6666 1.354 17.0335 3.02471 17.0335ZM8.04329 12.1994C10.1082 12.1994 11.7818 10.51 11.7818 8.42592C11.7818 6.34223 10.1082 4.6528 8.04329 4.6528C5.97837 4.6528 4.30444 6.34223 4.30444 8.42592C4.30444 10.51 5.97837 12.1994 8.04329 12.1994ZM14.9793 9.96436C12.2767 9.96436 10.0857 12.1756 10.0857 14.9033C10.0857 17.6313 12.2767 19.8426 14.9793 19.8426C17.6823 19.8426 19.8733 17.6313 19.8733 14.9033C19.8733 12.1756 17.6823 9.96436 14.9793 9.96436ZM23.0544 12.2113C26.3954 12.2113 29.1038 9.47749 29.1038 6.10547C29.1038 2.7338 26.3954 0 23.0544 0C19.7133 0 17.0046 2.7338 17.0046 6.10547C17.0046 9.47749 19.7133 12.2113 23.0544 12.2113ZM34.1181 8.42592C29.7444 8.42592 26.1994 12.0041 26.1994 16.4179C26.1994 20.8318 29.7444 24.41 34.1181 24.41C38.4914 24.41 42.0364 20.8318 42.0364 16.4179C42.0364 12.0041 38.4914 8.42592 34.1181 8.42592Z" fill="white"/>
</g>
<defs>
<clipPath id="clip0_34_843">
<rect width="114" height="55" fill="white"/>
</clipPath>
</defs>
</svg>
