<svg width="754" height="92" viewBox="0 0 754 92" fill="none" xmlns="http://www.w3.org/2000/svg">
  <g clip-path="url(#clip0_1832_4263)">
    <path d="M410.763 49.7344L393.446 89.816H404.961L415.991 63.2274L410.785 49.7344H410.763Z" fill="#232D32"/>
    <path d="M429.021 2.25488L465.552 89.794V89.8161H477.42L440.911 2.25488H429.021Z" fill="#232D32"/>
    <path d="M42.4649 70.8684H42.2222L10.8754 2.25488H0L39.1559 89.794H45.3327L73.9882 16.3442H74.2308V89.794H84.4445V2.25488H69.6204L42.4649 70.8684Z" fill="#232D32"/>
    <path d="M155.596 41.8065L131.44 2.25488H118.447L150.478 52.0753V89.794H160.691V52.0753L192.744 2.25488H180.479L155.596 41.8065Z" fill="#232D32"/>
    <path d="M556.259 50.507H576.047V77.3385C572.87 78.9727 569.385 80.2314 565.591 81.0927C561.73 81.9539 558.135 82.3956 554.649 82.3956C549.377 82.3956 544.546 81.4902 540.2 79.6793C535.81 77.8243 532.082 75.3068 528.95 72.0605C525.817 68.8142 523.413 64.9275 521.67 60.4887C519.949 56.05 519.067 51.302 519.067 46.024C519.067 40.7461 519.949 35.8656 521.67 31.4268C523.391 26.988 525.817 23.1234 528.95 19.9213C532.104 16.675 535.744 14.1796 539.957 12.3687C544.171 10.5579 548.737 9.65246 553.678 9.65246C558.62 9.65246 562.348 10.5137 566.495 12.2362C570.687 14.0029 574.216 16.4542 577.128 19.6784L584.761 11.5075C580.635 7.28952 575.937 4.30824 570.731 2.58573C565.525 0.863211 560.054 0.00195312 554.384 0.00195312C548.715 0.00195312 541.877 1.10613 536.295 3.33657C530.714 5.567 525.817 8.70287 521.604 12.6779C517.368 16.6971 514.081 21.5113 511.699 27.1426C509.294 32.796 508.125 39.134 508.125 46.002C508.125 52.8699 509.25 59.0754 511.522 64.7288C513.817 70.3822 516.971 75.2185 521.074 79.2598C525.155 83.3231 530.008 86.459 535.59 88.6673C541.171 90.8978 547.347 92.002 554.054 92.002C560.76 92.002 565.172 91.3615 570.642 90.0365C576.091 88.7115 581.319 86.6798 586.261 83.8752H586.283V40.8565H556.282V50.507H556.259Z" fill="#232D32"/>
    <path d="M687.985 39.3773H642.101V2.25488H631.887V89.794H642.101V49.0057H687.985V89.794H698.198V2.25488H687.985V39.3773Z" fill="#232D32"/>
    <path d="M754.015 2.25488H743.801V89.794H754.015V2.25488Z" fill="#232D32"/>
    <path d="M347.527 74.9539H347.284L297.518 2.25488H285.429L305.724 32.6418L344.814 89.794H357.696V2.25488H347.527V74.9539Z" fill="#232D32"/>
    <path d="M285.644 89.816H295.858V54.8798L285.644 37.3896V89.816Z" fill="#232D32"/>
    <path d="M0.125488 89.816H10.3391V60.6657L0.125488 37.3896V89.816Z" fill="#232D32"/>
  </g>
  <defs>
    <clipPath id="clip0_1832_4263">
      <rect width="754" height="92" fill="white" transform="translate(0 0.00195312)"/>
    </clipPath>
  </defs>
</svg>
